<?xml version="1.0" standalone="no"?>
<!DOCTYPE svg PUBLIC "-//W3C//DTD SVG 20010904//EN"
 "http://www.w3.org/TR/2001/REC-SVG-20010904/DTD/svg10.dtd">
<svg version="1.0" xmlns="http://www.w3.org/2000/svg"
 width="16.000000pt" height="16.000000pt" viewBox="0 0 16.000000 16.000000"
 preserveAspectRatio="xMidYMid meet">
<metadata>
Created by potrace 1.11, written by Peter Selinger 2001-2013
</metadata>
<g transform="translate(0.000000,16.000000) scale(0.000685,-0.000685)"
fill="#000000" stroke="none">
<path d="M2047 14894 c-1 -1 -27 -5 -57 -7 -44 -4 -162 -27 -215 -41 -94 -25
-156 -48 -235 -85 -44 -20 -181 -101 -196 -115 -7 -6 -25 -20 -40 -31 -58 -40
-202 -192 -256 -270 -98 -142 -160 -278 -197 -435 -11 -47 -32 -134 -47 -195
-25 -108 -30 -127 -38 -163 -2 -9 -9 -37 -16 -62 -7 -25 -14 -52 -15 -60 -6
-26 -32 -138 -40 -167 -18 -72 -107 -444 -111 -468 -3 -16 -10 -38 -15 -47 -5
-10 -8 -18 -5 -18 2 0 0 -16 -6 -36 -5 -20 -11 -44 -13 -53 -2 -9 -13 -54 -25
-101 -11 -47 -22 -92 -23 -100 -2 -8 -6 -21 -10 -27 -5 -7 -6 -13 -4 -13 4 0
-7 -51 -28 -130 -11 -45 -47 -188 -50 -205 -14 -63 -17 -75 -17 -82 0 -5 -4
-18 -9 -31 -8 -21 -12 -37 -25 -102 -3 -14 -8 -34 -11 -45 -4 -11 -8 -25 -9
-32 -1 -7 -9 -40 -18 -75 -8 -35 -31 -130 -51 -213 -20 -82 -61 -251 -91 -374
-30 -123 -56 -233 -58 -245 -2 -11 -7 -28 -10 -36 -3 -8 -7 -26 -10 -40 -3
-20 -36 -153 -50 -205 -1 -5 -9 -37 -16 -70 -8 -33 -14 -62 -15 -65 -1 -3 -5
-20 -9 -39 -24 -99 27 -204 119 -251 l50 -25 349 -3 c192 -1 351 -4 353 -6 2
-2 5 -19 7 -37 2 -19 7 -45 10 -59 3 -14 8 -36 11 -50 18 -89 30 -130 37 -130
4 0 8 6 8 13 5 142 71 259 180 317 58 30 171 45 198 26 6 -4 12 -7 13 -5 1 2
2 78 4 169 2 151 10 243 20 261 3 4 7 24 10 45 9 59 63 220 103 304 33 70 118
219 131 230 3 3 19 23 36 45 108 146 288 298 460 390 129 69 332 136 455 150
30 4 58 9 63 12 10 6 275 6 312 0 17 -3 50 -9 75 -12 216 -31 482 -146 650
-282 210 -168 352 -355 453 -593 15 -36 29 -74 31 -85 2 -11 9 -32 15 -48 6
-15 13 -38 16 -50 13 -61 26 -126 30 -157 3 -19 8 -51 11 -70 6 -38 6 -240 0
-280 -3 -14 -7 -45 -10 -69 -3 -24 -13 -73 -22 -110 -8 -36 -17 -73 -19 -81
-12 -52 -82 -225 -105 -260 -9 -14 -20 -33 -23 -43 -10 -28 -122 -186 -167
-237 -73 -83 -165 -170 -177 -170 -7 0 -13 -4 -13 -9 0 -17 -193 -139 -291
-184 -122 -57 -210 -85 -343 -112 -139 -29 -471 -25 -552 5 -14 6 -28 9 -32 8
-10 -2 -86 20 -167 48 -116 42 -239 105 -333 173 l-33 23 -62 -31 c-34 -17
-80 -33 -102 -36 -22 -3 -49 -7 -60 -8 -60 -9 -102 -54 -111 -122 -4 -26 -11
-69 -20 -114 -3 -16 32 -51 79 -79 15 -9 27 -20 27 -24 0 -4 4 -8 10 -8 5 0
44 -23 87 -51 165 -108 443 -218 638 -253 17 -3 41 -8 55 -11 101 -20 418 -28
535 -12 33 4 76 10 95 13 19 2 43 7 52 10 10 3 30 7 45 10 203 36 515 176 709
319 98 73 115 88 178 148 33 31 64 57 68 57 4 0 8 4 8 8 0 5 13 21 28 38 24
24 116 136 140 169 4 6 19 26 33 45 33 44 121 197 119 206 -1 4 2 10 7 13 9 6
24 36 63 126 25 57 88 245 95 284 10 54 14 71 18 79 3 4 8 34 12 67 3 33 10
64 14 68 7 7 82 9 239 8 45 -1 52 -4 52 -21 0 -25 26 -158 41 -215 75 -274
201 -523 368 -729 98 -122 245 -263 355 -341 16 -11 34 -26 41 -32 8 -7 16
-13 19 -13 5 0 72 -42 91 -58 16 -13 256 -129 305 -147 54 -20 105 -37 180
-58 51 -15 70 -19 140 -32 14 -3 36 -7 50 -10 64 -14 149 -19 320 -19 168 0
214 3 290 20 14 3 39 7 55 9 71 9 184 39 285 75 94 34 303 131 308 143 2 4 18
14 35 21 30 12 144 92 233 161 67 52 284 274 284 290 0 3 9 16 21 28 70 74
221 345 280 502 18 50 59 187 70 235 16 72 18 82 25 135 3 28 7 51 9 53 1 1
159 4 351 5 310 2 354 4 389 20 103 46 157 155 130 265 -3 12 -7 31 -10 43 -2
11 -22 94 -44 182 -22 89 -42 173 -45 187 -3 14 -11 50 -19 80 -13 51 -42 172
-52 216 -2 10 -19 82 -39 159 -19 77 -44 178 -55 225 -11 47 -39 162 -61 255
-50 205 -49 201 -54 223 -2 9 -9 35 -14 57 -6 22 -13 51 -16 65 -2 14 -7 32
-10 40 -3 8 -8 26 -10 40 -3 14 -7 35 -10 48 -4 12 -8 30 -10 40 -2 9 -21 85
-41 167 -20 83 -38 158 -40 168 -2 10 -7 27 -10 37 -6 18 -11 39 -21 89 -3 13
-16 69 -30 125 -15 55 -28 109 -30 119 -8 36 -13 54 -34 142 -58 243 -92 383
-100 415 -13 50 -41 171 -47 199 -2 14 -6 28 -9 32 -2 4 -13 49 -24 101 -25
116 -23 106 -39 148 -7 19 -16 44 -20 55 -10 27 -77 162 -100 202 -16 29 -91
131 -116 159 -84 93 -153 158 -207 194 -21 14 -38 28 -38 33 0 4 -7 7 -15 7
-8 0 -15 4 -15 9 0 5 -8 11 -17 15 -10 3 -43 19 -73 37 -48 27 -186 87 -215
94 -5 1 -17 5 -25 8 -18 6 -142 35 -185 42 -16 3 -41 7 -55 10 -14 3 -86 8
-160 10 -119 4 -140 2 -178 -15 -155 -71 -192 -263 -75 -388 52 -54 89 -65
263 -77 150 -10 243 -32 357 -85 170 -79 280 -183 372 -351 30 -57 71 -182 81
-251 1 -4 6 -22 11 -40 6 -18 12 -42 14 -53 11 -49 54 -225 61 -250 2 -5 6
-23 9 -40 3 -16 11 -48 17 -70 5 -22 12 -48 14 -58 2 -10 6 -28 10 -40 4 -12
8 -31 10 -42 2 -11 15 -67 29 -125 15 -58 28 -112 30 -120 2 -8 10 -42 18 -75
9 -33 18 -71 21 -85 3 -14 15 -63 26 -110 11 -47 23 -94 25 -105 3 -11 25
-103 50 -205 26 -102 48 -194 49 -205 2 -11 7 -29 11 -39 5 -10 9 -28 9 -40 1
-12 5 -27 9 -33 5 -7 6 -13 3 -13 -3 0 -1 -11 4 -25 5 -14 12 -36 14 -48 8
-35 13 -56 36 -152 12 -49 24 -98 26 -109 2 -10 13 -56 24 -101 11 -45 23 -91
25 -101 2 -11 9 -39 16 -64 6 -25 12 -52 14 -60 13 -61 98 -406 101 -411 2 -3
6 -19 8 -35 8 -41 12 -58 35 -154 12 -47 21 -90 21 -96 0 -13 -316 -18 -324
-6 -2 4 -7 32 -11 62 -7 57 -59 270 -74 305 -11 25 -35 88 -37 95 -7 37 -110
235 -171 330 -115 178 -287 364 -448 485 -44 33 -81 63 -83 68 -12 25 -85 -14
-153 -83 -66 -67 -103 -150 -113 -252 -7 -62 -6 -68 15 -78 66 -36 238 -205
326 -321 85 -113 213 -363 213 -418 0 -9 4 -21 9 -26 5 -6 12 -23 15 -40 3
-16 10 -52 16 -80 16 -77 21 -115 24 -181 2 -34 5 -65 8 -70 2 -5 3 -25 2 -44
-2 -19 -5 -69 -8 -110 -3 -41 -8 -86 -11 -100 -3 -14 -8 -41 -11 -60 -9 -61
-49 -198 -73 -255 -23 -54 -105 -221 -110 -225 -4 -3 -22 -30 -41 -60 -45 -71
-46 -72 -170 -198 -113 -114 -144 -142 -160 -142 -6 0 -10 -4 -10 -9 0 -12
-171 -114 -261 -155 -116 -52 -261 -95 -379 -112 -129 -19 -479 -4 -521 21 -4
3 -24 7 -45 11 -78 12 -321 113 -367 152 -9 8 -17 11 -17 7 0 -5 -10 0 -22 11
-13 11 -45 35 -73 54 -27 19 -59 41 -69 50 -41 32 -194 187 -222 225 -16 22
-35 46 -41 53 -7 7 -25 34 -40 60 -15 26 -30 49 -33 52 -9 8 -77 151 -100 210
-21 53 -48 136 -55 169 -2 9 -8 36 -14 61 -19 87 -25 146 -25 285 -1 149 4
198 28 310 23 106 52 193 101 300 8 17 11 31 7 31 -167 31 -277 149 -287 310
-2 23 -8 52 -15 64 l-12 23 -19 -24 c-33 -43 -162 -306 -174 -354 -2 -5 -14
-48 -28 -95 -27 -87 -52 -195 -62 -264 -3 -21 -8 -42 -11 -47 -3 -5 -68 -9
-144 -9 -153 0 -143 -5 -155 70 -5 30 -23 123 -30 155 -1 6 -4 17 -8 25 -3 8
-11 38 -18 65 -6 28 -15 55 -19 60 -3 6 -17 43 -30 83 -14 39 -28 72 -32 72
-5 0 -8 6 -8 14 0 22 -127 255 -163 301 -4 6 -26 34 -48 64 -80 108 -202 238
-309 328 -45 38 -187 143 -194 143 -3 0 -24 13 -48 29 -46 30 -220 117 -278
139 -92 35 -229 77 -285 88 -11 2 -31 6 -45 9 -155 30 -216 36 -395 35 -132 0
-188 -4 -320 -26 -219 -36 -500 -145 -690 -269 -56 -37 -170 -120 -205 -150
-74 -63 -228 -223 -275 -285 -27 -36 -52 -67 -55 -70 -40 -37 -186 -313 -235
-445 -39 -105 -86 -274 -87 -312 0 -13 -4 -23 -7 -23 -4 0 -7 -10 -8 -22 0
-13 -1 -35 -2 -49 l-1 -27 -165 0 c-91 0 -165 2 -165 6 1 9 28 130 36 157 3
11 10 38 14 60 14 60 18 77 29 113 5 17 8 32 6 32 -3 0 0 11 5 25 5 14 12 36
14 48 6 30 63 268 82 342 8 33 18 71 21 85 2 14 6 32 8 40 2 8 4 15 5 15 1 0
3 8 5 19 2 10 9 39 15 65 6 25 12 55 15 66 2 11 11 47 19 80 31 121 86 346 90
368 2 12 10 42 17 67 7 25 12 48 11 52 -1 4 3 19 8 33 5 14 13 40 16 58 6 34
7 37 17 77 14 50 127 522 131 543 3 12 5 22 6 22 2 0 5 14 13 55 3 14 15 63
27 110 24 92 28 112 36 150 3 14 13 57 24 95 10 39 21 84 24 100 3 17 15 66
26 110 11 44 22 91 25 105 19 104 89 300 107 300 4 0 8 5 8 10 0 30 104 150
180 210 25 19 47 37 50 40 3 3 16 11 30 18 14 6 32 16 40 22 45 29 179 76 245
85 22 3 47 8 55 11 8 3 51 7 95 9 131 7 189 16 206 31 8 8 20 14 25 14 6 0 22
12 36 28 122 128 85 322 -75 392 -40 18 -63 21 -148 18 -55 -1 -101 -3 -102
-4z"/>
<path d="M15139 13827 c-3 -49 -5 -62 -18 -102 -32 -101 -117 -221 -201 -283
-32 -23 -63 -42 -69 -42 -6 0 -11 -4 -11 -10 0 -5 -8 -10 -18 -10 -10 0 -22
-4 -27 -9 -15 -13 -114 -41 -148 -41 -38 0 -29 -10 15 -16 100 -15 229 -79
301 -149 63 -62 99 -105 89 -105 -4 0 -2 -4 3 -8 21 -14 66 -123 77 -184 11
-62 28 -103 23 -54 -4 33 42 168 79 231 45 77 144 166 235 214 45 23 81 40 81
37 0 -3 17 1 38 8 20 7 47 12 60 11 13 -1 26 3 29 9 3 6 3 8 -1 5 -15 -13
-214 47 -236 70 -3 4 -18 13 -33 22 -49 27 -138 122 -178 190 -23 39 -48 99
-60 150 -24 94 -28 104 -30 66z"/>
<path d="M7370 12965 c-3 -69 -47 -205 -84 -264 -14 -22 -26 -44 -26 -48 0 -7
-18 -29 -83 -103 -23 -26 -107 -95 -142 -118 -27 -16 -135 -67 -165 -77 -12
-4 -107 -23 -122 -24 -5 -1 -8 -4 -8 -8 0 -5 14 -9 32 -10 66 -5 245 -75 298
-118 52 -41 179 -177 195 -209 11 -21 28 -52 37 -70 19 -34 59 -156 63 -190 1
-12 3 -32 4 -46 2 -14 11 13 21 60 27 128 83 249 147 318 14 15 30 34 37 43
17 24 139 119 152 119 7 0 14 4 16 8 9 23 199 87 250 84 10 0 20 3 22 7 3 4
-25 14 -62 21 -261 52 -472 246 -549 505 -2 6 -8 37 -13 70 -13 76 -18 88 -20
50z"/>
<path d="M6340 12223 c0 -6 -21 -16 -47 -24 -87 -24 -282 -107 -258 -110 119
-12 186 -41 244 -104 58 -63 83 -119 89 -196 4 -62 6 -66 26 -61 11 3 27 9 34
15 6 5 12 6 12 3 0 -4 8 -2 18 3 11 6 30 12 43 15 26 5 50 11 89 20 14 3 41 8
60 11 19 2 51 7 70 10 19 3 88 6 153 7 64 1 117 5 117 10 0 4 -24 32 -54 61
-82 82 -147 111 -279 122 -83 8 -139 26 -186 63 -45 34 -80 73 -81 90 0 6 -4
12 -10 12 -5 0 -10 6 -10 13 -1 15 -30 55 -30 40z"/>
<path d="M5610 12150 c-8 -68 -45 -158 -83 -205 -47 -58 -109 -115 -119 -109
-4 3 -8 1 -8 -4 0 -11 -90 -49 -138 -58 -31 -6 -35 -16 -9 -20 51 -9 71 -16
121 -40 66 -32 153 -115 183 -176 12 -23 22 -46 23 -50 0 -4 7 -22 14 -40 7
-18 11 -39 9 -45 -3 -7 -1 -13 4 -13 4 0 16 27 26 60 26 91 81 167 169 236 30
24 85 48 148 65 36 10 56 18 45 19 -106 7 -231 85 -308 191 -14 20 -23 39 -20
43 4 3 2 6 -4 6 -9 0 -34 74 -47 135 -2 12 -4 14 -6 5z"/>
<path d="M15090 12141 c-8 -6 -17 -8 -21 -6 -3 3 -14 -4 -24 -15 -10 -11 -23
-20 -30 -20 -6 0 -25 -26 -41 -57 l-29 -57 0 -1646 c-1 -1219 2 -1656 10
-1686 14 -46 58 -117 68 -107 4 3 7 2 7 -4 0 -6 18 -18 40 -27 76 -30 155 -16
213 39 75 70 69 -78 69 1761 1 1751 2 1692 -46 1757 -41 56 -170 96 -216 68z"/>
<path d="M19165 12126 c-51 -24 -88 -68 -104 -122 -4 -16 -8 -645 -7 -1397 l1
-1368 -33 38 c-18 21 -73 90 -123 153 -49 63 -95 122 -102 130 -7 8 -26 33
-42 55 -16 22 -36 47 -45 56 -8 9 -24 29 -35 45 -11 15 -49 65 -85 110 -116
147 -469 597 -670 854 -19 25 -102 130 -259 330 -45 58 -88 112 -94 120 -7 8
-28 35 -47 60 -19 25 -38 47 -42 48 -5 2 -8 10 -8 17 0 7 -4 15 -8 17 -7 3
-66 75 -217 269 -33 42 -71 91 -85 109 -14 18 -33 43 -42 54 -17 19 -39 48
-95 122 -106 139 -206 254 -243 278 -39 26 -53 30 -129 32 -130 4 -194 -34
-231 -136 -15 -41 -16 -194 -15 -1700 2 -1774 -1 -1667 50 -1730 34 -43 75
-62 139 -67 56 -5 65 -3 111 28 73 49 97 104 98 217 0 49 -2 93 -6 99 -4 5 -4
13 0 16 8 9 8 290 0 304 -4 5 -4 13 0 17 3 3 6 521 6 1151 0 1262 -6 1156 58
1074 15 -19 64 -82 110 -140 46 -58 94 -119 106 -135 20 -26 418 -535 571
-732 31 -40 65 -82 76 -95 10 -12 30 -38 45 -57 24 -31 275 -354 304 -390 7
-8 28 -35 47 -60 19 -25 37 -47 40 -50 3 -3 25 -32 50 -65 25 -33 53 -69 62
-80 9 -11 53 -67 98 -125 45 -58 92 -118 106 -135 13 -16 60 -77 105 -135 45
-58 91 -116 102 -130 12 -14 42 -52 67 -85 25 -33 65 -85 89 -115 23 -30 54
-68 66 -85 79 -100 172 -212 190 -227 65 -55 169 -73 243 -43 43 19 89 68 101
110 15 49 13 3332 -1 3379 -16 50 -78 112 -125 125 -56 16 -92 13 -148 -13z"/>
<path d="M20585 12129 c-48 -25 -77 -54 -101 -100 -16 -32 -17 -125 -18 -1684
-1 -968 3 -1668 8 -1692 5 -24 13 -43 18 -43 4 0 8 -6 8 -13 0 -15 54 -67 69
-67 5 0 11 -5 13 -10 5 -17 111 -24 151 -11 50 17 102 68 123 120 15 39 17 87
17 451 l1 408 387 387 388 387 25 -28 c14 -16 26 -32 26 -36 0 -4 7 -13 15
-21 24 -25 155 -187 155 -192 0 -3 10 -16 23 -29 12 -12 33 -37 47 -56 14 -18
33 -42 44 -54 10 -11 30 -37 45 -56 14 -19 31 -40 36 -46 6 -6 21 -26 35 -44
14 -18 30 -38 35 -44 6 -6 91 -112 190 -236 98 -124 189 -236 202 -249 13 -13
23 -27 23 -32 0 -5 8 -16 18 -26 15 -14 340 -417 402 -498 40 -53 100 -102
130 -108 86 -18 152 3 207 67 66 74 69 173 8 261 -22 33 -170 219 -195 245 -9
8 -29 34 -45 55 -17 22 -32 42 -35 45 -3 3 -29 34 -58 70 -28 36 -63 79 -76
95 -21 26 -134 165 -216 265 -16 19 -39 49 -52 65 -12 17 -27 35 -33 41 -5 6
-23 28 -40 49 -31 39 -116 144 -147 180 -9 11 -56 70 -105 130 -48 61 -92 115
-98 121 -5 6 -23 28 -40 49 -16 21 -77 96 -134 167 l-104 129 652 647 c358
356 659 660 667 677 33 64 22 152 -27 213 -33 41 -106 75 -155 71 -91 -6 -72
11 -744 -679 -162 -166 -359 -368 -438 -449 -79 -80 -248 -254 -377 -386 -128
-132 -326 -334 -438 -450 l-205 -210 0 996 c0 757 -3 1006 -13 1037 -33 111
-174 174 -274 121z"/>
<path d="M11629 12117 c-61 -16 -95 -45 -131 -112 l-22 -40 0 -1650 -1 -1650
25 -50 c53 -105 170 -143 272 -88 26 14 55 38 65 52 28 43 51 91 43 91 -4 0
-5 17 -1 38 3 20 5 264 4 542 -1 278 0 514 2 525 4 20 12 20 482 21 435 0 604
5 673 19 13 2 42 7 65 11 22 3 45 7 50 8 6 2 28 7 50 11 49 11 47 10 65 18 8
3 29 9 45 13 37 9 34 8 68 22 16 7 30 12 32 12 2 0 16 5 32 12 15 6 30 12 33
13 39 13 173 88 217 121 17 13 34 24 37 24 15 0 154 135 207 200 73 90 169
276 184 356 2 10 4 20 5 22 2 1 3 5 4 10 3 13 15 76 23 117 8 46 9 333 0 385
-14 89 -19 116 -24 122 -2 5 -6 16 -8 25 -19 89 -99 250 -170 343 -92 119
-263 254 -403 316 -65 29 -180 74 -202 79 -8 2 -35 8 -60 14 -25 7 -52 13 -60
15 -21 5 -148 25 -191 29 -20 3 -42 7 -47 11 -6 3 -13 2 -17 -4 -4 -6 -12 -7
-18 -3 -17 10 -1288 10 -1328 0z m1366 -380 c41 -5 144 -27 235 -51 92 -24
235 -107 315 -183 104 -97 179 -241 202 -386 10 -69 9 -248 -3 -304 -7 -32
-13 -58 -14 -58 -1 0 -3 -9 -5 -20 -7 -34 -49 -135 -57 -135 -5 0 -8 -5 -8
-11 0 -34 -115 -163 -202 -227 -104 -76 -284 -153 -390 -166 -21 -2 -42 -7
-48 -11 -21 -13 -206 -18 -665 -19 l-470 -1 -1 793 -1 792 531 -3 c292 -2 554
-7 581 -10z"/>
<path d="M1262 9798 c-13 -57 -60 -158 -73 -158 -5 0 -9 -5 -9 -11 0 -14 -64
-74 -110 -103 -48 -30 -118 -57 -152 -58 -43 -1 -33 -12 23 -25 76 -19 135
-52 199 -113 63 -61 95 -115 120 -205 l17 -60 7 41 c18 103 104 226 202 286
42 26 134 58 167 58 30 0 12 13 -21 15 -36 2 -128 42 -171 74 -93 68 -157 169
-177 278 -7 39 -8 38 -22 -19z"/>
</g>
</svg>
