<svg style="position: absolute; width: 0; height: 0; overflow: hidden;" version="1.1" xmlns="http://www.w3.org/2000/svg" xmlns:xlink="http://www.w3.org/1999/xlink">
<defs>
<symbol id="icon-menu-burger" viewBox="0 0 67 32">
<title>icon-menu-burger</title>
<path d="M1.516 0c-0.836 0-1.516 0.571-1.516 1.346v2.641c0 0.744 0.658 1.346 1.518 1.346h63.543c0.837 0 1.517-0.571 1.517-1.346v-2.641c0-0.744-0.658-1.346-1.517-1.346h-63.545zM1.516 13.333c-0.836 0-1.516 0.571-1.516 1.346v2.639c0 0.742 0.658 1.346 1.518 1.346h63.543c0.837 0 1.517-0.57 1.517-1.346v-2.639c0-0.744-0.658-1.346-1.517-1.346h-63.545zM1.516 26.666c-0.836 0-1.516 0.572-1.516 1.348v2.641c0 0.742 0.658 1.346 1.518 1.346h63.543c0.837 0 1.517-0.57 1.517-1.346v-2.641c0-0.744-0.658-1.348-1.517-1.348h-63.545z"></path>
</symbol>
<symbol id="icon-menu-cross" viewBox="0 0 32 32">
<title>icon-menu-cross</title>
<path d="M20.228 15.999l11.477-11.476c0.393-0.393 0.393-1.030 0-1.423l-2.806-2.806c-0.188-0.189-0.444-0.295-0.712-0.295-0.267 0-0.524 0.106-0.709 0.295l-11.478 11.477-11.477-11.477c-0.378-0.378-1.046-0.378-1.423 0l-2.805 2.806c-0.393 0.393-0.393 1.030 0 1.423l11.477 11.476-11.477 11.476c-0.393 0.393-0.393 1.030 0 1.424l2.806 2.808c0.189 0.19 0.444 0.295 0.711 0.295s0.523-0.105 0.711-0.295l11.478-11.477 11.477 11.477c0.189 0.19 0.445 0.295 0.711 0.295 0.267 0 0.523-0.105 0.711-0.295l2.806-2.808c0.393-0.394 0.393-1.031 0-1.424l-11.477-11.476z"></path>
</symbol>
<symbol id="logo-pink-blue-desktop" viewBox="0 0 116 32">
<title>logo-pink-blue-desktop</title>
<path fill="#283645" style="fill: var(--color2, #283645)" d="M56.965 14.79c0-0.561 0.46-1.021 0.995-1.021h5.691c4.032 0 6.686 2.143 6.686 5.664v0.050c0 3.852-3.215 5.844-7.017 5.844h-4.339v5.409c0 0.561-0.46 1.020-1.022 1.020-0.536 0-0.995-0.46-0.995-1.020l0.002-15.946zM63.396 23.493c2.959 0 4.9-1.582 4.9-3.93v-0.049c0-2.553-1.913-3.879-4.797-3.879h-4.517v7.86l4.415-0.002z"></path>
<path fill="#283645" style="fill: var(--color2, #283645)" d="M74.187 14.663c0-0.561 0.459-1.021 0.995-1.021 0.562 0 1.021 0.46 1.021 1.021v16.076c0 0.561-0.459 1.020-1.021 1.020-0.536 0-0.995-0.459-0.995-1.020v-16.076z"></path>
<path fill="#283645" style="fill: var(--color2, #283645)" d="M81.432 14.688c0-0.536 0.46-0.995 0.995-0.995h0.281c0.46 0 0.741 0.23 1.021 0.586l10.846 13.83v-13.472c0-0.536 0.434-0.995 0.995-0.995 0.536 0 0.971 0.46 0.971 0.995v16.128c0 0.537-0.38 0.943-0.918 0.943h-0.102c-0.434 0-0.742-0.254-1.045-0.612l-11.077-14.161v13.83c0 0.537-0.434 0.996-0.996 0.996-0.536 0-0.969-0.46-0.969-0.996v-16.077h-0.002z"></path>
<path fill="#283645" style="fill: var(--color2, #283645)" d="M101.586 14.663c0-0.561 0.46-1.021 0.996-1.021 0.561 0 1.019 0.46 1.019 1.021v9.773l10.183-10.437c0.23-0.204 0.459-0.357 0.791-0.357 0.536 0 0.971 0.485 0.971 0.995 0 0.281-0.128 0.51-0.333 0.714l-6.328 6.277 6.788 8.37c0.178 0.231 0.281 0.434 0.281 0.742 0 0.536-0.457 1.021-1.018 1.021-0.382 0-0.64-0.205-0.816-0.46l-6.658-8.293-3.854 3.853v3.88c0 0.561-0.458 1.021-1.019 1.021-0.537 0-0.996-0.46-0.996-1.021v-16.078h-0.005z"></path>
<path fill="#d22856" style="fill: var(--color3, #d22856)" d="M78.067 7.827c-1.587 0-2.871-1.286-2.871-2.872 0 1.586-1.286 2.872-2.873 2.872 1.587 0 2.873 1.286 2.873 2.872 0-1.586 1.285-2.872 2.871-2.872z"></path>
<path fill="#d22856" style="fill: var(--color3, #d22856)" d="M34.155 15.307c0.195 0 0.388 0.011 0.579 0.026-0.346-0.577-0.972-0.968-1.693-0.968-0.695 0-1.279-0.45-1.493-1.073-0.576 0.165-1.129 0.382-1.656 0.647 0.049 0.013 0.097 0.030 0.149 0.030 0.875 0 1.585 0.71 1.585 1.585 0 0.076-0.012 0.149-0.022 0.223 0.793-0.303 1.652-0.47 2.551-0.47z"></path>
<path fill="#d22856" style="fill: var(--color3, #d22856)" d="M47.92 22.205c-0.002-0.007-4.102-16.933-4.102-16.933-0.286-1.861-2.055-5.271-6.815-5.271-0.657 0-1.189 0.532-1.189 1.189s0.532 1.189 1.189 1.189c3.849 0 4.419 2.956 4.469 3.284l3.778 15.614h-1.643c-0.353-2.819-1.944-5.253-4.205-6.754-0.711 0.3-1.212 1.006-1.212 1.825 0 0.070-0.012 0.136-0.021 0.203 1.578 1.076 2.707 2.765 3.035 4.728 0.065 0.387 0.107 0.782 0.107 1.189s-0.042 0.802-0.107 1.189c-0.567 3.385-3.504 5.968-7.051 5.968s-6.484-2.583-7.051-5.968c-0.065-0.387-0.107-0.783-0.107-1.189s0.042-0.802 0.107-1.189c0.116-0.697 0.338-1.357 0.64-1.969-0.82-0.061-1.468-0.739-1.468-1.572 0-0.15-0.061-0.283-0.152-0.387-0.743 1.164-1.244 2.496-1.423 3.929h-1.442c-0.587-4.698-4.599-8.347-9.453-8.347s-8.865 3.647-9.453 8.344h-1.643l3.778-15.614c0.050-0.328 0.621-3.284 4.469-3.284 0.657 0 1.189-0.532 1.189-1.189s-0.532-1.189-1.189-1.189c-4.76 0-6.529 3.41-6.815 5.271 0 0-4.1 16.926-4.102 16.933-0.211 0.879 0.421 1.447 1.13 1.447 0.010 0 0.018 0.003 0.029 0.003h3.156c0.063 0.499 0.17 0.98 0.307 1.451 0.047-0.084 0.081-0.178 0.081-0.281 0-0.875 0.71-1.585 1.585-1.585 0.132 0 0.257 0.019 0.379 0.049-0.034-0.272-0.059-0.545-0.059-0.826 0-0.406 0.042-0.801 0.107-1.189 0.567-3.385 3.504-5.969 7.051-5.969s6.483 2.584 7.051 5.969c0.065 0.388 0.107 0.783 0.107 1.189s-0.042 0.802-0.107 1.189c-0.567 3.386-3.504 5.969-7.051 5.969-1.603 0-3.078-0.531-4.269-1.422-0.277 0.239-0.634 0.389-1.030 0.389-0.327 0-0.594 0.266-0.594 0.593 0 0.229-0.052 0.446-0.139 0.644 1.645 1.354 3.743 2.174 6.035 2.174 4.855 0 8.865-3.649 9.453-8.345h1.438c0.588 4.697 4.599 8.345 9.453 8.345s8.866-3.649 9.453-8.345h3.155c0.010 0 0.018-0.004 0.029-0.004 0.709 0.002 1.341-0.567 1.13-1.446z"></path>
<path fill="#283645" style="fill: var(--color2, #283645)" d="M40.172 12.78c-1.97 0-3.566-1.596-3.566-3.566 0 1.97-1.596 3.566-3.566 3.566 1.97 0 3.566 1.596 3.566 3.566 0-1.97 1.595-3.566 3.566-3.566z"></path>
<path fill="#283645" style="fill: var(--color2, #283645)" d="M30.042 15.555c-1.204 0-2.179-0.975-2.179-2.179 0 1.204-0.975 2.179-2.179 2.179 1.204 0 2.179 0.974 2.179 2.179 0-1.205 0.976-2.179 2.179-2.179z"></path>
<path fill="#283645" style="fill: var(--color2, #283645)" d="M8.507 27.004c-1.204 0-2.179-0.975-2.179-2.18 0 1.205-0.975 2.18-2.179 2.18 1.204 0 2.179 0.974 2.179 2.178 0-1.202 0.975-2.178 2.179-2.178z"></path>
</symbol>
<symbol id="logo-pink-blue-mobile" viewBox="0 0 116 32">
<title>logo-pink-blue-mobile</title>
<path fill="#283645" style="fill: var(--color2, #283645)" d="M56.965 14.79c0-0.561 0.46-1.021 0.995-1.021h5.691c4.032 0 6.686 2.143 6.686 5.664v0.050c0 3.852-3.215 5.844-7.017 5.844h-4.339v5.409c0 0.561-0.46 1.020-1.022 1.020-0.536 0-0.995-0.46-0.995-1.020l0.002-15.946zM63.396 23.493c2.959 0 4.9-1.582 4.9-3.93v-0.049c0-2.553-1.913-3.879-4.797-3.879h-4.517v7.86l4.415-0.002z"></path>
<path fill="#283645" style="fill: var(--color2, #283645)" d="M74.187 14.663c0-0.561 0.459-1.021 0.995-1.021 0.562 0 1.021 0.46 1.021 1.021v16.076c0 0.561-0.459 1.020-1.021 1.020-0.536 0-0.995-0.459-0.995-1.020v-16.076z"></path>
<path fill="#283645" style="fill: var(--color2, #283645)" d="M81.432 14.688c0-0.536 0.46-0.995 0.995-0.995h0.281c0.46 0 0.741 0.23 1.021 0.586l10.846 13.83v-13.472c0-0.536 0.434-0.995 0.995-0.995 0.536 0 0.971 0.46 0.971 0.995v16.128c0 0.537-0.38 0.943-0.918 0.943h-0.102c-0.434 0-0.742-0.254-1.045-0.612l-11.077-14.161v13.83c0 0.537-0.434 0.996-0.996 0.996-0.536 0-0.969-0.46-0.969-0.996v-16.077h-0.002z"></path>
<path fill="#283645" style="fill: var(--color2, #283645)" d="M101.586 14.663c0-0.561 0.46-1.021 0.996-1.021 0.561 0 1.019 0.46 1.019 1.021v9.773l10.183-10.43c0.23-0.204 0.459-0.357 0.791-0.357 0.536 0 0.971 0.485 0.971 0.995 0 0.281-0.128 0.51-0.333 0.714l-6.328 6.277 6.788 8.37c0.178 0.231 0.281 0.434 0.281 0.742 0 0.536-0.457 1.021-1.018 1.021-0.382 0-0.64-0.205-0.816-0.46l-6.658-8.293-3.854 3.853v3.88c0 0.561-0.458 1.021-1.019 1.021-0.537 0-0.996-0.46-0.996-1.021v-16.084h-0.005z"></path>
<path fill="#D22856" style="fill: var(--color3, #D22856)" d="M47.92 22.205c-0.002-0.007-4.102-16.933-4.102-16.933-0.286-1.861-2.055-5.271-6.815-5.271-0.657 0-1.189 0.532-1.189 1.189s0.532 1.189 1.189 1.189c3.849 0 4.419 2.956 4.469 3.284l3.778 15.614h-1.643c-0.588-4.698-4.599-8.347-9.453-8.347s-8.866 3.649-9.453 8.347h-1.442c-0.587-4.698-4.599-8.347-9.453-8.347s-8.865 3.649-9.453 8.347h-1.643l3.778-15.614c0.050-0.328 0.621-3.284 4.469-3.284 0.657 0 1.189-0.532 1.189-1.189s-0.532-1.189-1.189-1.189c-4.76 0-6.529 3.41-6.815 5.271 0 0-4.1 16.926-4.102 16.933-0.211 0.879 0.421 1.447 1.13 1.447 0.010 0 0.018 0.003 0.029 0.003h3.156c0.587 4.697 4.599 8.346 9.453 8.346s8.865-3.649 9.453-8.346h1.438c0.588 4.697 4.598 8.346 9.453 8.346s8.866-3.649 9.453-8.346h3.156c0.010 0 0.018-0.003 0.029-0.003 0.709 0 1.341-0.568 1.13-1.447zM20.856 23.653c-0.567 3.386-3.504 5.969-7.051 5.969s-6.483-2.583-7.051-5.969c-0.065-0.387-0.107-0.783-0.107-1.189s0.042-0.801 0.107-1.189c0.567-3.385 3.504-5.969 7.051-5.969s6.483 2.584 7.051 5.969c0.065 0.388 0.107 0.783 0.107 1.189s-0.042 0.801-0.107 1.189zM41.206 23.653c-0.567 3.386-3.504 5.969-7.051 5.969s-6.484-2.583-7.051-5.969c-0.065-0.387-0.107-0.783-0.107-1.189s0.042-0.801 0.107-1.189c0.567-3.385 3.504-5.969 7.051-5.969s6.484 2.584 7.051 5.969c0.065 0.388 0.107 0.783 0.107 1.189s-0.042 0.801-0.107 1.189z"></path>
</symbol>
<symbol id="logo-pink-white-desktop" viewBox="0 0 116 32">
<title>logo-pink-white-desktop</title>
<path fill="#fff" style="fill: var(--color1, #fff)" d="M56.965 14.79c0-0.561 0.46-1.021 0.995-1.021h5.691c4.032 0 6.686 2.143 6.686 5.664v0.051c0 3.853-3.215 5.844-7.017 5.844h-4.339v5.409c0 0.561-0.46 1.021-1.021 1.021-0.536 0-0.995-0.46-0.995-1.021v-15.947zM63.396 23.493c2.959 0 4.9-1.582 4.9-3.93v-0.050c0-2.552-1.913-3.879-4.797-3.879h-4.517v7.86l4.415-0.001z"></path>
<path fill="#fff" style="fill: var(--color1, #fff)" d="M74.187 14.663c0-0.561 0.459-1.021 0.995-1.021 0.562 0 1.021 0.46 1.021 1.021v16.076c0 0.561-0.459 1.020-1.021 1.020-0.536 0-0.995-0.459-0.995-1.020v-16.076z"></path>
<path fill="#fff" style="fill: var(--color1, #fff)" d="M81.432 14.688c0-0.536 0.46-0.995 0.995-0.995h0.281c0.46 0 0.741 0.23 1.021 0.586l10.846 13.83v-13.472c0-0.536 0.434-0.995 0.995-0.995 0.536 0 0.97 0.46 0.97 0.995v16.128c0 0.536-0.381 0.943-0.918 0.943h-0.102c-0.434 0-0.741-0.254-1.045-0.612l-11.076-14.162v13.83c0 0.536-0.434 0.995-0.995 0.995-0.536 0-0.969-0.46-0.969-0.995v-16.077h-0.002z"></path>
<path fill="#fff" style="fill: var(--color1, #fff)" d="M101.586 14.663c0-0.561 0.46-1.021 0.996-1.021 0.561 0 1.019 0.46 1.019 1.021v9.773l10.183-10.437c0.23-0.204 0.459-0.357 0.791-0.357 0.536 0 0.971 0.485 0.971 0.995 0 0.281-0.128 0.51-0.333 0.714l-6.328 6.277 6.788 8.37c0.178 0.231 0.281 0.434 0.281 0.741 0 0.536-0.458 1.021-1.019 1.021-0.383 0-0.639-0.204-0.816-0.46l-6.659-8.293-3.854 3.853v3.879c0 0.561-0.458 1.021-1.019 1.021-0.537 0-0.996-0.46-0.996-1.021v-16.077h-0.003z"></path>
<path fill="#d22856" style="fill: var(--color3, #d22856)" d="M78.067 7.827c-1.587 0-2.871-1.286-2.871-2.872 0 1.586-1.286 2.872-2.873 2.872 1.587 0 2.873 1.286 2.873 2.872 0-1.586 1.285-2.872 2.871-2.872z"></path>
<path fill="#fff" style="fill: var(--color1, #fff)" d="M34.155 15.307c0.195 0 0.388 0.011 0.579 0.026-0.346-0.577-0.972-0.968-1.693-0.968-0.695 0-1.279-0.45-1.493-1.073-0.576 0.165-1.129 0.382-1.656 0.647 0.049 0.013 0.097 0.030 0.149 0.030 0.875 0 1.585 0.71 1.585 1.585 0 0.076-0.012 0.149-0.022 0.223 0.793-0.303 1.652-0.47 2.551-0.47z"></path>
<path fill="#fff" style="fill: var(--color1, #fff)" d="M47.92 22.205c-0.002-0.007-4.102-16.933-4.102-16.933-0.286-1.861-2.055-5.271-6.815-5.271-0.657 0-1.189 0.532-1.189 1.189s0.532 1.189 1.189 1.189c3.849 0 4.419 2.956 4.469 3.284l3.778 15.614h-1.643c-0.353-2.819-1.944-5.253-4.205-6.754-0.711 0.3-1.212 1.006-1.212 1.825 0 0.070-0.012 0.136-0.021 0.203 1.578 1.076 2.707 2.765 3.035 4.727 0.065 0.388 0.107 0.783 0.107 1.189s-0.042 0.802-0.107 1.189c-0.567 3.386-3.504 5.969-7.051 5.969s-6.484-2.583-7.051-5.969c-0.065-0.387-0.107-0.783-0.107-1.189s0.042-0.801 0.107-1.189c0.116-0.696 0.338-1.356 0.64-1.968-0.82-0.062-1.468-0.739-1.468-1.573 0-0.15-0.061-0.283-0.152-0.388-0.743 1.164-1.244 2.497-1.423 3.93h-1.442c-0.587-4.698-4.599-8.347-9.453-8.347s-8.865 3.647-9.453 8.345h-1.643l3.778-15.614c0.050-0.328 0.621-3.284 4.469-3.284 0.657 0 1.189-0.532 1.189-1.189s-0.532-1.189-1.189-1.189c-4.76 0-6.529 3.41-6.815 5.271 0 0-4.1 16.926-4.102 16.933-0.211 0.879 0.421 1.447 1.13 1.447 0.010 0 0.018 0.003 0.029 0.003h3.156c0.063 0.498 0.17 0.98 0.307 1.451 0.047-0.084 0.081-0.178 0.081-0.281 0-0.875 0.71-1.585 1.585-1.585 0.132 0 0.257 0.020 0.379 0.050-0.034-0.272-0.059-0.545-0.059-0.826 0-0.406 0.042-0.801 0.107-1.189 0.567-3.385 3.504-5.969 7.051-5.969s6.483 2.584 7.051 5.969c0.065 0.388 0.107 0.783 0.107 1.189s-0.042 0.802-0.107 1.189c-0.567 3.386-3.504 5.969-7.051 5.969-1.603 0-3.078-0.531-4.269-1.422-0.277 0.239-0.634 0.389-1.030 0.389-0.327 0-0.594 0.266-0.594 0.593 0 0.23-0.052 0.447-0.139 0.644 1.645 1.354 3.743 2.174 6.035 2.174 4.855 0 8.865-3.649 9.453-8.346h1.438c0.588 4.697 4.599 8.346 9.453 8.346s8.866-3.649 9.453-8.346h3.155c0.010 0 0.018-0.003 0.029-0.003 0.709 0.001 1.341-0.567 1.13-1.446z"></path>
<path fill="#d22856" style="fill: var(--color3, #d22856)" d="M40.172 12.78c-1.97 0-3.566-1.596-3.566-3.566 0 1.97-1.596 3.566-3.566 3.566 1.97 0 3.566 1.596 3.566 3.566 0-1.97 1.595-3.566 3.566-3.566z"></path>
<path fill="#d22856" style="fill: var(--color3, #d22856)" d="M30.042 15.555c-1.204 0-2.179-0.975-2.179-2.179 0 1.204-0.975 2.179-2.179 2.179 1.204 0 2.179 0.974 2.179 2.179 0-1.205 0.976-2.179 2.179-2.179z"></path>
<path fill="#d22856" style="fill: var(--color3, #d22856)" d="M8.507 27.004c-1.204 0-2.179-0.975-2.179-2.18 0 1.205-0.975 2.18-2.179 2.18 1.204 0 2.179 0.974 2.179 2.178 0-1.202 0.975-2.178 2.179-2.178z"></path>
</symbol>
<symbol id="logo-pink-white-mobile" viewBox="0 0 104 32">
<title>logo-pink-white-mobile</title>
<path fill="#fff" style="fill: var(--color1, #fff)" d="M0 2.028c0-0.991 0.812-1.803 1.758-1.803h10.051c7.121 0 11.809 3.785 11.809 10.005v0.090c0 6.805-5.679 10.321-12.395 10.321h-7.663v9.554c0 0.991-0.812 1.803-1.803 1.803-0.946 0.001-1.758-0.811-1.758-1.802v-28.169zM11.359 17.398c5.227 0 8.654-2.794 8.654-6.941v-0.091c0-4.508-3.381-6.851-8.475-6.851h-7.977v13.883h7.797z"></path>
<path fill="#fff" style="fill: var(--color1, #fff)" d="M30.418 1.803c0-0.991 0.811-1.803 1.755-1.803 0.993 0 1.803 0.812 1.803 1.803v28.394c0 0.991-0.811 1.803-1.803 1.803-0.946 0-1.757-0.812-1.757-1.803v-28.394z"></path>
<path fill="#fff" style="fill: var(--color1, #fff)" d="M43.215 1.848c0-0.946 0.811-1.758 1.758-1.758h0.496c0.812 0 1.307 0.406 1.803 1.036l19.156 24.428v-23.795c-0.001-0.946 0.764-1.758 1.757-1.758 0.946 0 1.712 0.812 1.712 1.758v28.485c0 0.946-0.675 1.667-1.621 1.667h-0.181c-0.767 0-1.308-0.451-1.848-1.081l-19.562-25.016v24.428c0 0.946-0.766 1.758-1.757 1.758-0.948 0-1.713-0.812-1.713-1.758v-28.394z"></path>
<path fill="#fff" style="fill: var(--color1, #fff)" d="M78.814 1.803c0-0.991 0.811-1.803 1.758-1.803 0.991 0 1.802 0.812 1.802 1.803v17.262l17.983-18.434c0.406-0.361 0.812-0.631 1.398-0.631 0.946 0 1.713 0.857 1.713 1.758 0 0.496-0.225 0.902-0.587 1.261l-11.177 11.087 11.989 14.784c0.315 0.406 0.496 0.766 0.496 1.308 0 0.946-0.811 1.803-1.802 1.803-0.676 0-1.128-0.361-1.442-0.812l-11.763-14.647-6.806 6.805v6.851c0 0.991-0.811 1.803-1.802 1.803-0.948 0-1.758-0.812-1.758-1.803v-28.395z"></path>
</symbol>
<symbol id="logo-pink-white-tablet" viewBox="0 0 116 32">
<title>logo-pink-white-tablet</title>
<path fill="#fff" style="fill: var(--color1, #fff)" d="M56.965 14.79c0-0.561 0.46-1.021 0.995-1.021h5.691c4.032 0 6.686 2.143 6.686 5.664v0.051c0 3.853-3.215 5.844-7.017 5.844h-4.339v5.409c0 0.561-0.46 1.021-1.021 1.021-0.536 0-0.995-0.46-0.995-1.021v-15.947zM63.396 23.493c2.959 0 4.9-1.582 4.9-3.93v-0.050c0-2.552-1.913-3.879-4.797-3.879h-4.517v7.86l4.415-0.001z"></path>
<path fill="#fff" style="fill: var(--color1, #fff)" d="M74.187 14.663c0-0.561 0.459-1.021 0.995-1.021 0.562 0 1.021 0.46 1.021 1.021v16.076c0 0.561-0.459 1.020-1.021 1.020-0.536 0-0.995-0.459-0.995-1.020v-16.076z"></path>
<path fill="#fff" style="fill: var(--color1, #fff)" d="M81.432 14.688c0-0.536 0.46-0.995 0.995-0.995h0.281c0.46 0 0.741 0.23 1.021 0.586l10.846 13.83v-13.472c0-0.536 0.434-0.995 0.995-0.995 0.536 0 0.97 0.46 0.97 0.995v16.128c0 0.536-0.381 0.943-0.918 0.943h-0.102c-0.434 0-0.741-0.254-1.045-0.612l-11.076-14.162v13.83c0 0.536-0.434 0.995-0.995 0.995-0.536 0-0.969-0.46-0.969-0.995v-16.077h-0.002z"></path>
<path fill="#fff" style="fill: var(--color1, #fff)" d="M101.586 14.663c0-0.561 0.46-1.021 0.996-1.021 0.561 0 1.019 0.46 1.019 1.021v9.773l10.183-10.437c0.23-0.204 0.459-0.357 0.791-0.357 0.536 0 0.971 0.485 0.971 0.995 0 0.281-0.128 0.51-0.333 0.714l-6.328 6.277 6.788 8.37c0.178 0.231 0.281 0.434 0.281 0.741 0 0.536-0.458 1.021-1.019 1.021-0.383 0-0.639-0.204-0.816-0.46l-6.659-8.293-3.854 3.853v3.879c0 0.561-0.458 1.021-1.019 1.021-0.537 0-0.996-0.46-0.996-1.021v-16.077h-0.003z"></path>
<path fill="#fff" style="fill: var(--color1, #fff)" d="M47.92 22.205c-0.002-0.007-4.102-16.933-4.102-16.933-0.286-1.861-2.055-5.271-6.815-5.271-0.657 0-1.189 0.532-1.189 1.189s0.532 1.189 1.189 1.189c3.849 0 4.419 2.956 4.469 3.284l3.778 15.614h-1.643c-0.588-4.698-4.599-8.347-9.453-8.347s-8.866 3.649-9.453 8.347h-1.442c-0.587-4.698-4.599-8.347-9.453-8.347s-8.865 3.649-9.453 8.347h-1.643l3.778-15.614c0.050-0.328 0.621-3.284 4.469-3.284 0.657 0 1.189-0.532 1.189-1.189s-0.532-1.189-1.189-1.189c-4.76 0-6.529 3.41-6.815 5.271 0 0-4.1 16.926-4.102 16.933-0.211 0.879 0.421 1.447 1.13 1.447 0.010 0 0.018 0.003 0.029 0.003h3.156c0.587 4.697 4.599 8.346 9.453 8.346s8.865-3.649 9.453-8.346h1.438c0.588 4.697 4.598 8.346 9.453 8.346s8.866-3.649 9.453-8.346h3.156c0.010 0 0.018-0.003 0.029-0.003 0.709 0 1.341-0.568 1.13-1.447zM20.856 23.653c-0.567 3.386-3.504 5.969-7.051 5.969s-6.483-2.583-7.051-5.969c-0.065-0.387-0.107-0.783-0.107-1.189s0.042-0.801 0.107-1.189c0.567-3.385 3.504-5.969 7.051-5.969s6.483 2.584 7.051 5.969c0.065 0.388 0.107 0.783 0.107 1.189s-0.042 0.801-0.107 1.189zM41.206 23.653c-0.567 3.386-3.504 5.969-7.051 5.969s-6.484-2.583-7.051-5.969c-0.065-0.387-0.107-0.783-0.107-1.189s0.042-0.801 0.107-1.189c0.567-3.385 3.504-5.969 7.051-5.969s6.484 2.584 7.051 5.969c0.065 0.388 0.107 0.783 0.107 1.189s-0.042 0.801-0.107 1.189z"></path>
</symbol>
</defs>
</svg>
