<svg style="position: absolute; width: 0; height: 0; overflow: hidden;" version="1.1" xmlns="http://www.w3.org/2000/svg" xmlns:xlink="http://www.w3.org/1999/xlink">
<defs>
<symbol id="icon-editor-contrast" viewBox="0 0 32 32">
<title>icon-editor-contrast</title>
<path d="M16 4.010c6.612 0 11.99 5.378 11.99 11.99s-5.378 11.99-11.99 11.99-11.99-5.378-11.99-11.99 5.378-11.99 11.99-11.99zM16 0c-8.836 0-16 7.163-16 16 0 8.835 7.164 16 16 16s16-7.165 16-16c0-8.837-7.164-16-16-16v0z"></path>
<path d="M16 24.352c4.718 0 8.541-3.823 8.541-8.541 0-4.717-3.823-8.54-8.541-8.54z"></path>
</symbol>
<symbol id="icon-editor-crop" viewBox="0 0 32 32">
<title>icon-editor-crop</title>
<path d="M22.667 20h2.667v-10.667c0-1.473-1.193-2.667-2.667-2.667h-10.667v2.667h10.667v10.667zM9.333 22.667v-21.333h-2.667v5.333h-5.333v2.667h5.333v13.333c0 1.473 1.193 2.667 2.667 2.667h13.333v5.333h2.667v-5.333h5.333v-2.667h-21.333z"></path>
</symbol>
<symbol id="icon-editor-fill" viewBox="0 0 32 32">
<title>icon-editor-fill</title>
<path d="M22.080 11.92l-11.92-11.92-1.887 1.887 3.173 3.173-6.86 6.86c-0.78 0.78-0.78 2.047 0 2.827l7.333 7.333c0.387 0.393 0.9 0.587 1.413 0.587s1.027-0.193 1.413-0.587l7.333-7.333c0.78-0.78 0.78-2.047 0-2.827zM6.94 13.333l6.393-6.387 6.393 6.387h-12.787zM25.333 15.333c0 0-2.667 2.887-2.667 4.667 0 1.473 1.193 2.667 2.667 2.667s2.667-1.193 2.667-2.667c0-1.78-2.667-4.667-2.667-4.667z"></path>
<path d="M0 26.667h32v2h-32v-2z"></path>
</symbol>
</defs>
</svg>
